<svg width="500" height="300" viewBox="0 0 500 300" xmlns="http://www.w3.org/2000/svg">
  <defs>
    <!-- 高级渐变定义 -->
    <linearGradient id="primaryGradient" x1="0%" y1="0%" x2="100%" y2="100%">
      <stop offset="0%" style="stop-color:#667eea;stop-opacity:1" />
      <stop offset="50%" style="stop-color:#764ba2;stop-opacity:1" />
      <stop offset="100%" style="stop-color:#f093fb;stop-opacity:1" />
    </linearGradient>

    <linearGradient id="accentGradient" x1="0%" y1="0%" x2="100%" y2="100%">
      <stop offset="0%" style="stop-color:#ffecd2;stop-opacity:1" />
      <stop offset="100%" style="stop-color:#fcb69f;stop-opacity:1" />
    </linearGradient>

    <linearGradient id="bookGradient" x1="0%" y1="0%" x2="100%" y2="100%">
      <stop offset="0%" style="stop-color:#4facfe;stop-opacity:1" />
      <stop offset="100%" style="stop-color:#00f2fe;stop-opacity:1" />
    </linearGradient>

    <!-- 高级滤镜效果 -->
    <filter id="softGlow" x="-50%" y="-50%" width="200%" height="200%">
      <feGaussianBlur stdDeviation="4" result="coloredBlur"/>
      <feMerge>
        <feMergeNode in="coloredBlur"/>
        <feMergeNode in="SourceGraphic"/>
      </feMerge>
    </filter>

    <filter id="dropShadow" x="-50%" y="-50%" width="200%" height="200%">
      <feDropShadow dx="2" dy="4" stdDeviation="3" flood-color="rgba(0,0,0,0.3)"/>
    </filter>
  </defs>

  <!-- 背景几何装饰 -->
  <g opacity="0.1">
    <circle cx="100" cy="80" r="40" fill="url(#primaryGradient)"/>
    <circle cx="400" cy="200" r="60" fill="url(#accentGradient)"/>
    <polygon points="50,250 80,200 110,250" fill="url(#primaryGradient)"/>
  </g>

  <!-- 主要视觉元素组 -->
  <g transform="translate(180, 100)">
    <!-- 现代化书本设计 -->
    <g filter="url(#dropShadow)">
      <!-- 书本主体 -->
      <rect x="0" y="0" width="120" height="80" rx="8" fill="url(#bookGradient)"/>
      <rect x="8" y="8" width="104" height="64" rx="4" fill="rgba(255,255,255,0.15)"/>

      <!-- 书脊设计 -->
      <rect x="0" y="0" width="20" height="80" rx="8" fill="rgba(0,0,0,0.2)"/>
      <rect x="4" y="8" width="12" height="64" rx="4" fill="rgba(255,255,255,0.2)"/>

      <!-- 现代化页面线条 -->
      <g opacity="0.6">
        <rect x="30" y="20" width="80" height="2" rx="1" fill="rgba(255,255,255,0.8)"/>
        <rect x="30" y="28" width="70" height="2" rx="1" fill="rgba(255,255,255,0.6)"/>
        <rect x="30" y="36" width="85" height="2" rx="1" fill="rgba(255,255,255,0.8)"/>
        <rect x="30" y="44" width="75" height="2" rx="1" fill="rgba(255,255,255,0.6)"/>
        <rect x="30" y="52" width="80" height="2" rx="1" fill="rgba(255,255,255,0.8)"/>
      </g>
    </g>

    <!-- 知识光环 -->
    <g transform="translate(60, -30)">
      <circle cx="0" cy="0" r="25" fill="url(#accentGradient)" filter="url(#softGlow)" opacity="0.9"/>
      <circle cx="0" cy="0" r="15" fill="#fff" opacity="0.8"/>
      <circle cx="0" cy="0" r="8" fill="url(#accentGradient)"/>

      <!-- 精致光芒 -->
      <g stroke="url(#accentGradient)" stroke-width="3" opacity="0.7" stroke-linecap="round">
        <line x1="-35" y1="0" x2="-28" y2="0"/>
        <line x1="28" y1="0" x2="35" y2="0"/>
        <line x1="0" y1="-35" x2="0" y2="-28"/>
        <line x1="0" y1="28" x2="0" y2="35"/>
        <line x1="-25" y1="-25" x2="-20" y2="-20"/>
        <line x1="20" y1="20" x2="25" y2="25"/>
        <line x1="25" y1="-25" x2="20" y2="-20"/>
        <line x1="-20" y1="20" x2="-25" y2="25"/>
      </g>
    </g>
  </g>

  <!-- 飘浮的学科图标 -->
  <g opacity="0.8">
    <!-- 数学符号 -->
    <g transform="translate(120, 180)">
      <circle cx="0" cy="0" r="18" fill="rgba(102, 126, 234, 0.2)" filter="url(#softGlow)"/>
      <text x="0" y="6" font-family="serif" font-size="20" font-weight="bold" fill="#667eea" text-anchor="middle">∑</text>
    </g>

    <!-- 文学符号 -->
    <g transform="translate(350, 160)">
      <circle cx="0" cy="0" r="16" fill="rgba(139, 92, 246, 0.2)" filter="url(#softGlow)"/>
      <text x="0" y="5" font-family="serif" font-size="16" font-weight="bold" fill="#8b5cf6" text-anchor="middle">文</text>
    </g>

    <!-- 科学符号 -->
    <g transform="translate(80, 120)">
      <circle cx="0" cy="0" r="14" fill="rgba(6, 182, 212, 0.2)" filter="url(#softGlow)"/>
      <text x="0" y="4" font-family="serif" font-size="14" font-weight="bold" fill="#06b6d4" text-anchor="middle">π</text>
    </g>
  </g>

  <!-- 现代化装饰线条 -->
  <g stroke="rgba(255,255,255,0.3)" stroke-width="2" fill="none" opacity="0.6">
    <path d="M 50 260 Q 250 240 450 260" stroke-linecap="round"/>
    <path d="M 80 40 Q 250 20 420 40" stroke-linecap="round"/>
  </g>

  <!-- 精致的朝闻阁标识 -->
  <g transform="translate(380, 200)">
    <rect x="0" y="0" width="80" height="80" rx="12" fill="url(#primaryGradient)" filter="url(#dropShadow)" opacity="0.9"/>
    <rect x="6" y="6" width="68" height="68" rx="8" fill="none" stroke="rgba(255,255,255,0.8)" stroke-width="2"/>
    <text x="40" y="30" font-family="serif" font-size="16" font-weight="bold" fill="white" text-anchor="middle">朝</text>
    <text x="40" y="50" font-family="serif" font-size="16" font-weight="bold" fill="white" text-anchor="middle">闻</text>
    <text x="40" y="70" font-family="serif" font-size="16" font-weight="bold" fill="white" text-anchor="middle">阁</text>
  </g>
</svg>
